HIERARCHY
ROOT root
{
	OFFSET	0	13.1	24.9
	CHANNELS 6  Xposition Yposition Zposition Xrotation Yrotation Zrotation
	JOINT spine_1
	{
		OFFSET	0	9.99999	0
		CHANNELS 3  Xrotation Yrotation Zrotation
		JOINT spine_2
		{
			OFFSET	0	112	-10
			CHANNELS 3  Xrotation Yrotation Zrotation
			JOINT spine_3
			{
				OFFSET	0	206.5	19.3
				CHANNELS 3  Xrotation Yrotation Zrotation
				JOINT spine_4
				{
					OFFSET	0	110.4	14.6
					CHANNELS 3  Xrotation Yrotation Zrotation
					JOINT neck_1
					{
						OFFSET	0	71.8	-50.3
						CHANNELS 3  Xrotation Yrotation Zrotation
						JOINT neck_2
						{
							OFFSET	0	86.2	-25.8
							CHANNELS 3  Xrotation Yrotation Zrotation
							JOINT head_ee
							{
								OFFSET	0	179.8	-8.7
								CHANNELS 3  Xrotation Yrotation Zrotation
								End Site
								{
									OFFSET	1	0	0
								}
							}
						}
					}
					JOINT left_clavicle
					{
						OFFSET	-43.2	22.4	-70.8
						CHANNELS 3  Xrotation Yrotation Zrotation
						JOINT left_shoulder
						{
							OFFSET	-93.9	-5.79999	48.7
							CHANNELS 3  Xrotation Yrotation Zrotation
							JOINT left_elbow
							{
								OFFSET	-291.4	-30.8	15.2
								CHANNELS 3  Xrotation Yrotation Zrotation
								JOINT left_lowarm_twist
								{
									OFFSET	-110.7	-3.89999	13.6
									CHANNELS 3  Xrotation Yrotation Zrotation
									JOINT left_hand
									{
										OFFSET	-110.7	-3.89999	13.6
										CHANNELS 3  Xrotation Yrotation Zrotation
										JOINT left_ee
										{
											OFFSET	-80.8	-5.10001	12.1
											CHANNELS 3  Xrotation Yrotation Zrotation
											End Site
											{
												OFFSET	1	0	0
											}
										}
									}
								}
							}
						}
					}
					JOINT right_clavicle
					{
						OFFSET	43.2	22.4	-70.8
						CHANNELS 3  Xrotation Yrotation Zrotation
						JOINT right_shoulder
						{
							OFFSET	93.9	-5.79999	48.7
							CHANNELS 3  Xrotation Yrotation Zrotation
							JOINT right_elbow
							{
								OFFSET	291.4	-30.8	15.2
								CHANNELS 3  Xrotation Yrotation Zrotation
								JOINT right_lowarm_twist
								{
									OFFSET	110.7	-3.89999	13.6
									CHANNELS 3  Xrotation Yrotation Zrotation
									JOINT right_hand
									{
										OFFSET	110.7	-3.89999	13.6
										CHANNELS 3  Xrotation Yrotation Zrotation
										JOINT right_ee
										{
											OFFSET	80.8	-5.10001	12.1
											CHANNELS 3  Xrotation Yrotation Zrotation
											End Site
											{
												OFFSET	1	0	0
											}
										}
									}
								}
							}
						}
					}
				}
			}
		}
	}
	JOINT left_hip
	{
		OFFSET	-82.8	-127.5	0.300001
		CHANNELS 3  Xrotation Yrotation Zrotation
		JOINT left_knee
		{
			OFFSET	-28.2	-396.7	2.2
			CHANNELS 3  Xrotation Yrotation Zrotation
			JOINT left_ankle
			{
				OFFSET	-11.7	-411.3	35.4
				CHANNELS 3  Xrotation Yrotation Zrotation
				JOINT left_toes
				{
					OFFSET	0	-60	-88.6
					CHANNELS 3  Xrotation Yrotation Zrotation
					JOINT left_foot_ee
					{
						OFFSET	-22.5	-16.5	-42.2
						CHANNELS 3  Xrotation Yrotation Zrotation
						End Site
						{
							OFFSET	1	0	0
						}
					}
				}
			}
		}
	}
	JOINT right_hip
	{
		OFFSET	82.8	-127.5	0.300001
		CHANNELS 3  Xrotation Yrotation Zrotation
		JOINT right_knee
		{
			OFFSET	28.2	-396.7	2.2
			CHANNELS 3  Xrotation Yrotation Zrotation
			JOINT right_ankle
			{
				OFFSET	11.7	-411.3	35.4
				CHANNELS 3  Xrotation Yrotation Zrotation
				JOINT right_toes
				{
					OFFSET	0	-60	-88.6
					CHANNELS 3  Xrotation Yrotation Zrotation
					JOINT right_foot_ee
					{
						OFFSET	22.5	-16.5	-42.2
						CHANNELS 3  Xrotation Yrotation Zrotation
						End Site
						{
							OFFSET	1	0	0
						}
					}
				}
			}
		}
	}
}
MOTION
Frames: 9
Frame Time: 0.02
798.515213202 640.779 -1881.94877353 1.79164119512 24.3969195695 2.43831333762 -0.228158 -0.311764 -2.28183 -0.225276 -0.165972 -2.29704 -0.216964 0.32928 -2.27937 -0.224212 -0.0347375 -2.30276 -14.8067 2.99812 7.23606 -14.6604 1.40402 7.81768 -0.0 0.0 -0.0 10.813 8.78744 20.5417 -4.79619 -31.5701 50.784 1.6393 -39.0757 0.58176 63.669 -2.11123 -7.43577 0.76007 -10.5343 0.652968 -0.0 0.0 -0.0 6.89087 -8.3521 -13.2453 -29.3542 15.0713 -47.1027 1.02293 26.8722 -0.244384 66.4566 2.38121 7.67015 1.32116 -9.45668 -12.5175 0.0 0.0 0.0 6.33838 -6.10702 -0.126554 8.22189 -0.424739 -1.18848 39.8232 8.87785 -4.85357 29.3547 -0.0 -0.0 -0.0 0.0 -0.0 20.2 -15.533 12.1088 -49.5016 1.17904 -7.27301 -3.75016 -10.908 -0.553781 26.2254 -0.0 -0.0 0.0 0.0 0.0 
792.414148764 631.935 -1887.58307528 1.51976606306 23.3865132596 3.06688190408 0.0553369 -0.322097 -2.25889 0.058158 -0.177743 -2.2748 0.0666396 0.301814 -2.26169 0.0595063 -0.0590684 -2.28096 -16.1361 3.15011 7.42074 -15.9832 1.7707 8.06887 -0.0 0.0 -0.0 10.9218 9.62194 20.6463 -3.33367 -31.471 50.5103 1.70737 -40.2205 0.625196 62.9087 -2.03961 -7.36961 0.974413 -11.1723 1.82482 -0.0 0.0 -0.0 6.94846 -9.64638 -13.3028 -29.472 14.8584 -46.931 1.07897 28.1233 -0.270258 66.6112 2.39652 7.68277 1.33867 -8.67043 -12.3428 0.0 0.0 0.0 5.30523 -6.34908 -0.417402 9.1981 -0.48641 -1.32529 39.5514 9.96855 -4.83665 28.8237 -0.0 -0.0 -0.0 0.0 -0.0 21.7578 -16.5679 10.8769 -48.5359 1.09706 -7.14896 -4.92105 -12.3083 -0.729247 25.6031 -0.0 -0.0 0.0 0.0 0.0 
782.193220348 624.462 -1892.59492972 2.40946372791 23.1729537662 3.2643126228 0.364862 -0.309008 -2.13292 0.367376 -0.17269 -2.14825 0.374916 0.268775 -2.13836 0.368541 -0.0722307 -2.15397 -16.8236 3.44868 7.60956 -16.6649 2.33377 8.36977 -0.0 0.0 -0.0 10.7964 10.6622 20.272 -1.74331 -31.2479 50.3092 1.68496 -39.8477 0.610778 61.9749 -1.95287 -7.28707 1.18839 -11.3314 3.20037 -0.0 0.0 -0.0 7.37875 -9.58385 -14.0802 -28.7933 14.9687 -46.873 1.0786 28.1152 -0.270085 66.7851 2.41378 7.69691 1.34044 -7.94508 -12.0844 0.0 0.0 0.0 5.10047 -6.76021 -1.24308 6.71604 -0.334219 -0.97546 39.1849 11.9667 -4.8212 28.432 -0.0 -0.0 -0.0 0.0 -0.0 23.247 -18.2506 8.72052 -46.2945 0.914977 -6.85594 -5.76481 -13.9497 -0.857517 24.8299 -0.0 -0.0 0.0 0.0 0.0 
775.775039798 621.267 -1896.93722267 1.72262924018 21.7640366056 4.33641678479 0.687823 -0.189158 -2.09385 0.690261 -0.0555679 -2.10164 0.693012 0.362512 -2.0709 0.687028 0.0309785 -2.10214 -16.5598 3.96224 7.92463 -16.3911 3.10294 8.83733 -0.0 0.0 -0.0 10.5018 9.87783 19.8157 -0.113098 -31.0193 51.028 1.63092 -38.9321 0.576485 60.9708 -1.86112 -7.19676 1.11618 -11.0047 2.85406 -0.0 0.0 -0.0 7.71805 -8.89283 -14.732 -27.7687 15.4493 -47.365 0.997222 26.2886 -0.232879 66.7925 2.41451 7.6975 1.16888 -7.52223 -10.7875 0.0 0.0 0.0 3.58644 -7.26846 -0.99705 2.68004 -0.119606 -0.393805 41.4702 10.7521 -5.00962 29.8128 -0.0 -0.0 -0.0 0.0 -0.0 23.2226 -20.5739 8.1686 -36.9175 0.282394 -5.5619 -9.2045 -13.2319 -1.37508 22.7435 -0.0 -0.0 0.0 0.0 0.0 
771.633769606 626.132 -1900.60839575 2.3317260008 20.428431299 3.88785474243 0.543725 -0.0902271 -1.97808 0.545901 0.0358008 -1.97981 0.545304 0.432911 -1.93225 0.540114 0.122378 -1.97635 -16.3079 3.95106 7.61458 -16.1533 3.22119 8.53345 -0.0 0.0 -0.0 10.2583 10.8521 19.2409 -0.15181 -30.0367 51.511 1.64401 -39.1562 0.584733 59.1047 -1.69487 -7.02472 1.19853 -11.6587 3.1269 -0.0 0.0 -0.0 7.89028 -8.38633 -15.0756 -26.8698 15.737 -47.1076 0.937679 24.9144 -0.207148 66.6899 2.40433 7.68918 1.02288 -6.15313 -9.29491 0.0 0.0 0.0 2.86881 -9.83771 -0.900105 -0.0455224 0.00187202 0.00673501 40.8386 10.8332 -4.9563 30.1107 -0.0 -0.0 -0.0 0.0 -0.0 22.8513 -21.9334 8.99151 -27.0654 -0.145235 -4.11248 -13.303 -11.9283 -1.99408 20.6127 -0.0 -0.0 0.0 0.0 0.0 
774.441965295 626.132 -1904.03543901 2.32087942661 19.6973645519 3.91947201545 0.543725 -0.0902271 -1.97808 0.545901 0.0358008 -1.97981 0.545304 0.432911 -1.93225 0.540114 0.122378 -1.97635 -16.3079 3.95106 7.61458 -16.1533 3.22119 8.53345 -0.0 0.0 -0.0 10.2583 10.8521 19.2409 -0.15181 -30.0367 51.511 1.64401 -39.1562 0.584733 59.1047 -1.69487 -7.02472 1.19853 -11.6587 3.1269 -0.0 0.0 -0.0 7.89028 -8.38633 -15.0756 -26.8698 15.737 -47.1076 0.937679 24.9144 -0.207148 66.6899 2.40433 7.68918 1.02288 -6.15313 -9.29491 0.0 0.0 0.0 2.86881 -9.83771 -0.900105 -0.0455224 0.00187202 0.00673501 40.8386 10.8332 -4.9563 30.1107 -0.0 -0.0 -0.0 0.0 -0.0 22.8513 -21.9334 8.99151 -27.0654 -0.145235 -4.11248 -13.303 -11.9283 -1.99408 20.6127 -0.0 -0.0 0.0 0.0 0.0 
757.595965333 638.072 -1916.76556828 3.08786325127 18.4932582688 2.52385868167 0.41562 -0.0778673 -1.71854 0.417263 0.0316295 -1.72002 0.416848 0.380347 -1.67775 0.412937 0.110646 -1.71675 -16.3693 3.32874 8.97982 -16.1432 1.25273 9.59957 -0.0 0.0 -0.0 10.05 13.4652 18.529 -1.05087 -27.8566 54.2255 1.84001 -42.3447 0.712725 53.9351 -1.26471 -6.5212 0.901061 -13.3508 0.388367 -0.0 0.0 -0.0 8.39464 -5.59671 -16.1721 -25.6703 16.1304 -47.2656 0.719747 19.6233 -0.124474 67.9156 2.527 7.78754 0.745064 -3.38487 -6.35665 0.0 0.0 0.0 4.40663 -17.4623 0.44786 -3.29325 0.121516 0.490733 38.8384 10.2359 -4.77478 28.0228 -0.0 -0.0 -0.0 0.0 -0.0 20.1599 -23.0247 8.22488 -16.9671 -0.319416 -2.57468 -11.672 -10.6215 -1.74473 21.046 -0.0 -0.0 0.0 0.0 0.0 
733.596578467 653.019 -1934.17584175 2.84571048661 21.0623859766 2.14245363657 -0.447536 -0.172372 -1.61533 -0.446087 -0.0692491 -1.62302 -0.443252 0.285863 -1.59915 -0.446819 0.0297537 -1.62422 -17.1986 2.34541 9.66669 -16.9371 -0.883555 9.90917 -0.0 0.0 -0.0 9.85843 16.6556 17.7508 -2.90985 -25.4322 55.6454 1.94581 -43.9421 0.785079 50.091 -0.975336 -6.12299 0.504162 -14.6994 -2.86277 -0.0 0.0 -0.0 8.69576 -2.75298 -16.8921 -24.8742 16.7342 -48.436 0.671956 18.411 -0.108901 69.089 2.64639 7.87926 0.623375 -1.77568 -4.89453 0.0 0.0 0.0 4.75596 -26.7169 3.14298 -8.01173 0.246018 1.20395 38.4005 8.83815 -4.72626 25.967 -0.0 -0.0 -0.0 0.0 -0.0 18.5115 -22.6584 7.77504 -10.305 -0.285217 -1.55364 -8.76695 -10.3276 -1.30529 23.0832 -0.0 -0.0 0.0 0.0 0.0 
715.67921667 644.706 -1924.20614938 2.21635677246 27.4082886074 1.53216750272 -0.167766 -0.200928 -1.52099 -0.166485 -0.103748 -1.53069 -0.163001 0.224644 -1.51767 -0.166215 -0.0178343 -1.5341 -16.7091 2.1875 9.30136 -16.4674 -1.06534 9.50765 -0.0 0.0 -0.0 9.92184 17.2092 17.7759 -5.17431 -24.3434 55.7035 1.89945 -43.2524 0.75311 48.5441 -0.866565 -5.95747 0.300759 -14.52 -4.15383 -0.0 0.0 -0.0 9.2001 0.0215941 -18.0145 -23.3602 18.0614 -48.5262 0.709631 19.3681 -0.121098 69.4821 2.6868 7.90943 0.604343 -1.22215 -4.54131 0.0 0.0 0.0 4.87181 -30.6636 4.28284 -9.62261 0.275016 1.44943 38.9263 7.73157 -4.76864 25.1314 -0.0 -0.0 -0.0 0.0 -0.0 19.347 -21.8292 8.36403 -7.32344 -0.231524 -1.09932 -8.05819 -9.41851 -1.19809 23.6532 -0.0 -0.0 0.0 0.0 0.0 
